<svg xmlns="http://www.w3.org/2000/svg" width="124" height="34" viewBox="0 0 124 34" fill="none">
  <g clip-path="url(#clip0_2_9514)">
    <path d="M26.0044 6.94678C24.0054 6.03314 21.8825 5.36726 19.6666 4.99561C19.3876 5.47566 19.0777 6.12605 18.8607 6.63708C16.5039 6.29639 14.164 6.29639 11.8396 6.63708C11.6226 6.12605 11.2972 5.47566 11.0337 4.99561C8.80238 5.36726 6.67944 6.03314 4.69443 6.94678C0.681 12.8623 -0.403715 18.6384 0.138641 24.337C2.80393 26.2727 5.37627 27.4497 7.90365 28.224C8.52348 27.3877 9.08134 26.4895 9.56172 25.545C8.64745 25.2043 7.77968 24.7861 6.94291 24.2906C7.15985 24.1358 7.3768 23.9655 7.57825 23.7951C12.6299 26.1025 18.1015 26.1025 23.0911 23.7951C23.3081 23.9655 23.5095 24.1358 23.7265 24.2906C22.8897 24.7861 22.022 25.2043 21.1077 25.545C21.588 26.4895 22.1459 27.3877 22.7657 28.224C25.2915 27.4497 27.8794 26.2727 30.5307 24.337C31.197 17.7403 29.4754 12.0106 26.0044 6.94678ZM10.259 20.8218C8.7404 20.8218 7.50073 19.4436 7.50073 17.7557C7.50073 16.0678 8.70941 14.6895 10.259 14.6895C11.7931 14.6895 13.0482 16.0678 13.0172 17.7557C13.0172 19.4436 11.7931 20.8218 10.259 20.8218ZM20.4414 20.8218C18.9227 20.8218 17.6815 19.4436 17.6815 17.7557C17.6815 16.0678 18.8917 14.6895 20.4414 14.6895C21.9755 14.6895 23.2306 16.0678 23.1996 17.7557C23.1996 19.4436 21.991 20.8218 20.4414 20.8218Z" fill="#23272A"/>
    <path d="M41.2693 9.85742H47.8567C49.4372 9.85742 50.7853 10.1052 51.8856 10.6007C52.9857 11.0963 53.8071 11.7777 54.3494 12.6603C54.8917 13.543 55.1707 14.5495 55.1707 15.6955C55.1707 16.8104 54.8918 17.817 54.3184 18.7306C53.7451 19.6288 52.8774 20.3566 51.7151 20.8831C50.553 21.4097 49.1118 21.6729 47.3918 21.6729H41.2693V9.85742ZM47.3143 18.6687C48.3834 18.6687 49.2048 18.4054 49.7781 17.8635C50.3515 17.337 50.6459 16.5936 50.6459 15.68C50.6459 14.8283 50.3825 14.1469 49.8711 13.6359C49.3597 13.1249 48.585 12.8616 47.5467 12.8616H45.4858V18.6687H47.3143Z" fill="#23272A"/>
    <path d="M65.4305 21.6584C64.5162 21.4261 63.695 21.0854 62.9667 20.6208V17.8179C63.5246 18.2515 64.2528 18.5922 65.1826 18.871C66.1123 19.1497 67.0111 19.2891 67.8789 19.2891C68.2817 19.2891 68.5916 19.2426 68.7931 19.1342C68.9946 19.0258 69.103 18.9019 69.103 18.7471C69.103 18.5767 69.0411 18.4373 68.9326 18.3289C68.8241 18.2205 68.6071 18.1276 68.2817 18.0347L66.2518 17.5857C65.0896 17.3224 64.2683 16.9353 63.7724 16.4707C63.2766 16.0061 63.0442 15.3712 63.0442 14.5969C63.0442 13.9465 63.2611 13.3736 63.6794 12.8935C64.1133 12.4135 64.7177 12.0418 65.508 11.7785C66.2983 11.5154 67.2126 11.376 68.2817 11.376C69.227 11.376 70.0947 11.4689 70.885 11.6857C71.6753 11.8869 72.3261 12.1502 72.8375 12.4599V15.108C72.3106 14.7983 71.6909 14.5505 71.009 14.3646C70.3117 14.1788 69.5989 14.0859 68.8706 14.0859C67.8168 14.0859 67.29 14.2717 67.29 14.6279C67.29 14.7983 67.3675 14.9221 67.538 15.0151C67.7084 15.108 68.0028 15.1854 68.4367 15.2783L70.1257 15.5881C71.226 15.7738 72.0472 16.1145 72.5896 16.5946C73.132 17.0746 73.3954 17.7714 73.3954 18.7161C73.3954 19.7382 72.946 20.5589 72.0472 21.1473C71.1485 21.7513 69.8778 22.0455 68.2352 22.0455C67.2745 22.0145 66.3447 21.8906 65.4305 21.6584Z" fill="#23272A"/>
    <path d="M77.5807 21.3026C76.62 20.8225 75.8762 20.1876 75.3958 19.3824C74.8999 18.5771 74.6675 17.6635 74.6675 16.6414C74.6675 15.6349 74.9154 14.7212 75.4268 13.9315C75.9382 13.1262 76.6819 12.5067 77.6582 12.0422C78.6344 11.5931 79.8122 11.3608 81.1758 11.3608C82.8648 11.3608 84.2595 11.717 85.3751 12.4293V15.511C84.9877 15.2477 84.5229 15.0154 83.996 14.8605C83.4692 14.6902 82.9113 14.6128 82.3225 14.6128C81.2687 14.6128 80.463 14.7986 79.8586 15.1858C79.2698 15.5729 78.9753 16.0685 78.9753 16.6878C78.9753 17.2918 79.2543 17.7874 79.8431 18.1745C80.4164 18.5616 81.2532 18.7629 82.338 18.7629C82.8958 18.7629 83.4537 18.6855 83.996 18.5151C84.5384 18.3448 85.0187 18.159 85.4061 17.9113V20.8999C84.1664 21.6433 82.7253 22.0149 81.0983 22.0149C79.7192 22.0149 78.5569 21.7672 77.5807 21.3026Z" fill="#23272A"/>
    <path d="M89.7931 21.3026C88.8168 20.8225 88.0731 20.1876 87.5617 19.3669C87.0503 18.5461 86.7869 17.6325 86.7869 16.6104C86.7869 15.6039 87.0503 14.6902 87.5617 13.9005C88.0731 13.1107 88.8168 12.4912 89.7776 12.0422C90.7383 11.5931 91.9004 11.3608 93.2347 11.3608C94.5674 11.3608 95.7295 11.5776 96.6903 12.0422C97.651 12.4912 98.3948 13.1107 98.9062 13.9005C99.4175 14.6902 99.6655 15.5884 99.6655 16.6104C99.6655 17.617 99.4175 18.5461 98.9062 19.3669C98.3948 20.1876 97.6665 20.838 96.6903 21.3026C95.714 21.7672 94.5674 22.0149 93.2347 22.0149C91.9159 22.0149 90.7693 21.7672 89.7931 21.3026ZM94.9237 18.3138C95.3266 17.9113 95.5436 17.3537 95.5436 16.6878C95.5436 16.0065 95.3421 15.48 94.9237 15.0774C94.5054 14.6747 93.9475 14.4734 93.2502 14.4734C92.5219 14.4734 91.9624 14.6747 91.5441 15.0774C91.1412 15.48 90.9243 16.0065 90.9243 16.6878C90.9243 17.3692 91.1257 17.9113 91.5441 18.3138C91.9624 18.7319 92.5219 18.9333 93.2502 18.9333C93.9475 18.9178 94.5209 18.7164 94.9237 18.3138Z" fill="#23272A"/>
    <path d="M110.033 11.9797V15.6189C109.599 15.3401 109.041 15.2007 108.359 15.2007C107.46 15.2007 106.762 15.4795 106.282 16.0214C105.802 16.5634 105.554 17.4152 105.554 18.5611V21.6582H101.417V11.8093H105.477V14.953C105.694 13.807 106.065 12.9553 106.561 12.4133C107.057 11.8713 107.708 11.5771 108.498 11.5771C109.087 11.5771 109.599 11.7165 110.033 11.9797Z" fill="#23272A"/>
    <path d="M123.982 9.51709V21.6732H119.844V19.4588C119.488 20.295 118.961 20.93 118.248 21.3635C117.534 21.7971 116.65 22.0139 115.596 22.0139C114.667 22.0139 113.846 21.7816 113.148 21.3325C112.451 20.8835 111.909 20.2486 111.537 19.4588C111.165 18.6536 110.979 17.7554 110.979 16.7644C110.963 15.7268 111.165 14.7977 111.583 13.9769C111.986 13.1562 112.575 12.5213 113.319 12.0567C114.063 11.5921 114.915 11.3598 115.875 11.3598C117.844 11.3598 119.163 12.2116 119.844 13.9305V9.51709H123.982ZM119.225 18.2355C119.643 17.8328 119.859 17.2908 119.859 16.6405C119.859 16.0055 119.659 15.4945 119.24 15.1074C118.822 14.7203 118.264 14.5189 117.565 14.5189C116.867 14.5189 116.309 14.7203 115.891 15.1229C115.472 15.5255 115.271 16.0365 115.271 16.6869C115.271 17.3373 115.472 17.8483 115.891 18.2509C116.309 18.6536 116.852 18.8549 117.549 18.8549C118.248 18.8549 118.806 18.6536 119.225 18.2355Z" fill="#23272A"/>
    <path d="M58.9847 12.399C60.1733 12.399 61.139 11.5321 61.139 10.4629C61.139 9.39359 60.1733 8.52686 58.9847 8.52686C57.7943 8.52686 56.8303 9.39359 56.8303 10.4629C56.8303 11.5321 57.7943 12.399 58.9847 12.399Z" fill="#23272A"/>
    <path d="M61.1382 13.729C59.821 14.3019 58.1784 14.3174 56.8303 13.729V21.6731H61.1382V13.729Z" fill="#23272A"/>
  </g>
  <defs>
    <clipPath id="clip0_2_9514">
      <rect width="123.99" height="33.97" fill="white"/>
    </clipPath>
  </defs>
</svg>