<svg width="125" height="35" viewBox="0 0 125 35" fill="none" xmlns="http://www.w3.org/2000/svg">
<g id="SVG" clip-path="url(#clip0_1_455)">
<g id="Group">
<path id="Vector" d="M26.9943 7.4668C24.9953 6.55316 22.8724 5.88728 20.6564 5.51562C20.3775 5.99568 20.0676 6.64607 19.8506 7.1571C17.4937 6.81641 15.1538 6.81641 12.8294 7.1571C12.6125 6.64607 12.2871 5.99568 12.0236 5.51562C9.79225 5.88728 7.66931 6.55316 5.68429 7.4668C1.67087 13.3823 0.586153 19.1584 1.12851 24.857C3.79379 26.7927 6.36613 27.9697 8.89351 28.744C9.51335 27.9078 10.0712 27.0095 10.5516 26.065C9.63732 25.7243 8.76955 25.3061 7.93277 24.8106C8.14972 24.6558 8.36667 24.4855 8.56812 24.3151C13.6198 26.6225 19.0914 26.6225 24.081 24.3151C24.2979 24.4855 24.4994 24.6558 24.7164 24.8106C23.8795 25.3061 23.0118 25.7243 22.0975 26.065C22.5779 27.0095 23.1358 27.9078 23.7556 28.744C26.2814 27.9697 28.8692 26.7927 31.5206 24.857C32.1868 18.2603 30.4653 12.5306 26.9943 7.4668ZM11.2489 21.3419C9.73027 21.3419 8.4906 19.9637 8.4906 18.2758C8.4906 16.5878 9.69928 15.2096 11.2489 15.2096C12.7829 15.2096 14.0381 16.5878 14.0071 18.2758C14.0071 19.9637 12.7829 21.3419 11.2489 21.3419ZM21.4313 21.3419C19.9126 21.3419 18.6714 19.9637 18.6714 18.2758C18.6714 16.5878 19.8816 15.2096 21.4313 15.2096C22.9653 15.2096 24.2205 16.5878 24.1895 18.2758C24.1895 19.9637 22.9808 21.3419 21.4313 21.3419Z" fill="white"/>
<path id="Vector_2" d="M42.2592 10.3775H48.8465C50.4271 10.3775 51.7752 10.6252 52.8754 11.1208C53.9756 11.6164 54.7969 12.2978 55.3393 13.1804C55.8816 14.0631 56.1605 15.0696 56.1605 16.2156C56.1605 17.3305 55.8817 18.3371 55.3083 19.2507C54.7349 20.1489 53.8672 20.8767 52.705 21.4032C51.5428 21.9298 50.1017 22.193 48.3816 22.193H42.2592V10.3775ZM48.3041 19.1888C49.3733 19.1888 50.1946 18.9255 50.768 18.3836C51.3414 17.857 51.6358 17.1137 51.6358 16.2001C51.6358 15.3484 51.3724 14.667 50.861 14.156C50.3496 13.645 49.5749 13.3817 48.5366 13.3817H46.4756V19.1888H48.3041Z" fill="white"/>
<path id="Vector_3" d="M66.4204 22.1783C65.5061 21.946 64.6849 21.6053 63.9565 21.1407V18.3378C64.5144 18.7714 65.2427 19.1121 66.1725 19.3909C67.1022 19.6696 68.001 19.809 68.8688 19.809C69.2716 19.809 69.5815 19.7625 69.783 19.6541C69.9844 19.5457 70.0929 19.4218 70.0929 19.267C70.0929 19.0966 70.0309 18.9572 69.9224 18.8488C69.814 18.7404 69.597 18.6475 69.2716 18.5546L67.2416 18.1056C66.0795 17.8423 65.2582 17.4552 64.7623 16.9906C64.2665 16.526 64.034 15.8911 64.034 15.1168C64.034 14.4664 64.251 13.8935 64.6693 13.4134C65.1032 12.9334 65.7076 12.5617 66.4979 12.2984C67.2881 12.0353 68.2024 11.8959 69.2716 11.8959C70.2169 11.8959 71.0846 11.9888 71.8749 12.2056C72.6651 12.4068 73.316 12.6701 73.8274 12.9798V15.6279C73.3005 15.3182 72.6807 15.0704 71.9989 14.8845C71.3015 14.6987 70.5888 14.6058 69.8605 14.6058C68.8067 14.6058 68.2799 14.7916 68.2799 15.1478C68.2799 15.3182 68.3574 15.442 68.5278 15.535C68.6983 15.6279 68.9926 15.7053 69.4266 15.7982L71.1156 16.108C72.2158 16.2937 73.0371 16.6344 73.5794 17.1145C74.1218 17.5945 74.3853 18.2913 74.3853 19.236C74.3853 20.2581 73.9359 21.0788 73.0371 21.6672C72.1384 22.2712 70.8676 22.5654 69.2251 22.5654C68.2644 22.5344 67.3346 22.4105 66.4204 22.1783Z" fill="white"/>
<path id="Vector_4" d="M78.5706 21.8225C77.6098 21.3424 76.8661 20.7076 76.3857 19.9023C75.8898 19.097 75.6573 18.1834 75.6573 17.1613C75.6573 16.1548 75.9053 15.2411 76.4167 14.4514C76.9281 13.6461 77.6718 13.0267 78.6481 12.5622C79.6243 12.1131 80.802 11.8808 82.1656 11.8808C83.8547 11.8808 85.2494 12.237 86.365 12.9493V16.0309C85.9776 15.7677 85.5128 15.5354 84.9859 15.3805C84.459 15.2102 83.9012 15.1327 83.3124 15.1327C82.2586 15.1327 81.4529 15.3186 80.8485 15.7057C80.2596 16.0929 79.9652 16.5884 79.9652 17.2078C79.9652 17.8118 80.2441 18.3073 80.833 18.6945C81.4063 19.0815 82.2431 19.2829 83.3279 19.2829C83.8857 19.2829 84.4435 19.2054 84.9859 19.0351C85.5283 18.8647 86.0086 18.679 86.396 18.4312V21.4199C85.1563 22.1632 83.7152 22.5349 82.0881 22.5349C80.709 22.5349 79.5468 22.2871 78.5706 21.8225Z" fill="white"/>
<path id="Vector_5" d="M90.783 21.8225C89.8067 21.3424 89.0629 20.7076 88.5516 19.8868C88.0402 19.0661 87.7767 18.1525 87.7767 17.1304C87.7767 16.1239 88.0402 15.2102 88.5516 14.4205C89.0629 13.6307 89.8067 13.0112 90.7675 12.5622C91.7282 12.1131 92.8903 11.8808 94.2245 11.8808C95.5572 11.8808 96.7194 12.0976 97.6802 12.5622C98.6409 13.0112 99.3847 13.6307 99.8961 14.4205C100.407 15.2102 100.655 16.1084 100.655 17.1304C100.655 18.137 100.407 19.0661 99.8961 19.8868C99.3847 20.7076 98.6564 21.3579 97.6802 21.8225C96.7039 22.2871 95.5572 22.5349 94.2245 22.5349C92.9058 22.5349 91.7592 22.2871 90.783 21.8225ZM95.9136 18.8338C96.3165 18.4312 96.5334 17.8737 96.5334 17.2078C96.5334 16.5265 96.332 16 95.9136 15.5973C95.4952 15.1947 94.9374 14.9933 94.24 14.9933C93.5118 14.9933 92.9523 15.1947 92.534 15.5973C92.1311 16 91.9141 16.5265 91.9141 17.2078C91.9141 17.8892 92.1156 18.4312 92.534 18.8338C92.9523 19.2519 93.5118 19.4532 94.24 19.4532C94.9374 19.4377 95.5107 19.2364 95.9136 18.8338Z" fill="white"/>
<path id="Vector_6" d="M111.022 12.4995V16.1387C110.589 15.86 110.031 15.7206 109.349 15.7206C108.45 15.7206 107.752 15.9993 107.272 16.5413C106.791 17.0833 106.543 17.935 106.543 19.0809V22.1781H102.406V12.3292H106.466V15.4728C106.683 14.3268 107.055 13.4752 107.551 12.9331C108.047 12.3911 108.698 12.097 109.488 12.097C110.077 12.097 110.589 12.2364 111.022 12.4995Z" fill="white"/>
<path id="Vector_7" d="M124.971 10.0372V22.1934H120.834V19.9789C120.477 20.8152 119.951 21.4501 119.238 21.8836C118.524 22.3173 117.64 22.5341 116.586 22.5341C115.656 22.5341 114.836 22.3018 114.138 21.8527C113.441 21.4037 112.899 20.7687 112.527 19.9789C112.155 19.1737 111.969 18.2755 111.969 17.2845C111.953 16.2469 112.155 15.3178 112.573 14.4971C112.976 13.6764 113.565 13.0414 114.309 12.5769C115.053 12.1123 115.904 11.88 116.865 11.88C118.834 11.88 120.152 12.7317 120.834 14.4506V10.0372H124.971ZM120.214 18.7556C120.632 18.353 120.849 17.8109 120.849 17.1606C120.849 16.5257 120.648 16.0146 120.229 15.6276C119.812 15.2404 119.254 15.0391 118.555 15.0391C117.857 15.0391 117.299 15.2404 116.881 15.6431C116.462 16.0456 116.261 16.5566 116.261 17.2071C116.261 17.8574 116.462 18.3684 116.881 18.7711C117.299 19.1737 117.842 19.3751 118.539 19.3751C119.238 19.3751 119.796 19.1737 120.214 18.7556Z" fill="white"/>
<path id="Vector_8" d="M59.9745 12.9189C61.1631 12.9189 62.1288 12.052 62.1288 10.9829C62.1288 9.91355 61.1631 9.04681 59.9745 9.04681C58.7841 9.04681 57.8201 9.91355 57.8201 10.9829C57.8201 12.052 58.7841 12.9189 59.9745 12.9189Z" fill="white"/>
<path id="Vector_9" d="M62.128 14.2489C60.8108 14.8218 59.1682 14.8373 57.8201 14.2489V22.193H62.128V14.2489Z" fill="white"/>
</g>
</g>
<defs>
<clipPath id="clip0_1_455">
<rect width="123.99" height="33.97" fill="white" transform="translate(0.989929 0.52002)"/>
</clipPath>
</defs>
</svg>
