<svg width="1260" height="50" viewBox="0 0 1260 50" fill="none" xmlns="http://www.w3.org/2000/svg">
<g clip-path="url(#clip0_1_1618)">
<g clip-path="url(#clip1_1_1618)">
<g clip-path="url(#clip2_1_1618)">
<path d="M891.545 16.0748L895.147 14.4929C895.235 14.405 895.235 14.3171 895.147 14.3171L891.545 12.7353L889.875 9.04442C889.875 8.95655 889.787 8.95655 889.787 9.04442L888.117 12.6475L884.514 14.3171C884.426 14.3171 884.426 14.405 884.514 14.4929L888.117 16.0748L889.787 19.6778H889.875L891.545 16.0748Z" fill="#6ADBC6"/>
<path opacity="0.5" d="M668.067 7.37867L671.466 5.87898V5.67902L668.067 4.27931L666.567 0.97998H666.368L664.868 4.27931L661.569 5.67902C661.469 5.779 661.469 5.87898 661.569 5.87898L664.868 7.37867L666.368 10.778H666.567L668.067 7.37867Z" fill="#9691FF"/>
<path d="M870.326 44.8332L875.4 42.6083C875.432 42.5723 875.45 42.5257 875.45 42.4774C875.45 42.4291 875.432 42.3825 875.4 42.3465L870.326 40.1216L868.049 35.0174C868.036 35.0035 868.021 34.9923 868.005 34.9847C867.988 34.9771 867.969 34.9731 867.951 34.9731C867.933 34.9731 867.914 34.9771 867.897 34.9847C867.881 34.9923 867.866 35.0035 867.853 35.0174L865.577 40.0562L860.503 42.3465C860.471 42.3825 860.453 42.4291 860.453 42.4774C860.453 42.5257 860.471 42.5723 860.503 42.6083L865.577 44.8332L867.853 49.8719C867.94 50.0028 868.005 50.0028 868.049 49.8719L870.326 44.8332Z" fill="#628BF7"/>
<path d="M379.827 35.123L387.526 31.7237C387.579 31.7237 387.63 31.7026 387.667 31.6651C387.705 31.6276 387.726 31.5767 387.726 31.5237C387.726 31.4707 387.705 31.4198 387.667 31.3823C387.63 31.3449 387.579 31.3238 387.526 31.3238L379.827 27.9245C379.801 27.9245 379.775 27.914 379.757 27.8952C379.738 27.8765 379.727 27.851 379.727 27.8245L376.228 20.126C376.228 19.9261 376.028 19.9261 375.928 20.126L372.529 27.8245H372.429L364.631 31.3238C364.581 31.3787 364.554 31.4499 364.554 31.5237C364.554 31.5975 364.581 31.6687 364.631 31.7237L372.429 35.123H372.529L375.928 42.9214C376.028 43.1214 376.228 43.1214 376.228 42.9214L379.727 35.223C379.727 35.1965 379.738 35.171 379.757 35.1523C379.775 35.1335 379.801 35.123 379.827 35.123Z" fill="#FF7ABC"/>
</g>
</g>
</g>
<defs>
<clipPath id="clip0_1_1618">
<rect width="1260" height="48.99" fill="white" transform="translate(-6.10352e-05 0.97998)"/>
</clipPath>
<clipPath id="clip1_1_1618">
<rect width="531" height="48.99" fill="white" transform="translate(364.5 0.97998)"/>
</clipPath>
<clipPath id="clip2_1_1618">
<rect width="530.892" height="48.99" fill="white" transform="translate(364.554 0.97998)"/>
</clipPath>
</defs>
</svg>
